<?xml version="1.0" encoding="utf-8"?>
<!-- Generator: Adobe Illustrator 25.3.1, SVG Export Plug-In . SVG Version: 6.00 Build 0)  -->
<svg version="1.1" xmlns="http://www.w3.org/2000/svg" xmlns:xlink="http://www.w3.org/1999/xlink" x="0px" y="0px"
	 viewBox="0 0 387.7 222" style="enable-background:new 0 0 387.7 222;" xml:space="preserve">
<style type="text/css">
	.st0{fill:#668D66;}
	.st1{fill:#A29F9E;}
	.st2{fill:#888483;stroke:#FFFFFF;stroke-width:0.5;stroke-linecap:round;stroke-linejoin:round;stroke-miterlimit:10;}
	.st3{fill:#A29F9E;stroke:#FFFFFF;stroke-width:0.5;stroke-linecap:round;stroke-linejoin:round;stroke-miterlimit:10;}
	.st4{fill:#FFFFFF;}
	.st5{fill:none;stroke:#1D1D1B;stroke-width:0.5;stroke-linecap:round;stroke-miterlimit:10;}
	.st6{fill:none;stroke:#1D1D1B;stroke-width:0.5;stroke-linecap:round;stroke-linejoin:round;stroke-miterlimit:10;}
	.st7{fill:none;stroke:#1D1D1B;stroke-width:0.5;stroke-miterlimit:10;}
	.st8{fill:#1D1D1B;}
	.st9{fill:#1D1D1B;stroke:#FFFFFF;stroke-width:0.5;stroke-linecap:round;stroke-linejoin:round;stroke-miterlimit:10;}
	.st10{fill:none;stroke:#95C11F;stroke-width:0.453;stroke-miterlimit:10;stroke-dasharray:0.4447,0.4447;}
	.st11{fill:#95C11F;}
	.st12{font-family:'Roboto', sans-serif;}
	.st13{font-size:12.6831px;}
	.st14{fill:url(#SVGID_1_);}
	.st15{fill:none;}
	.st16{font-family:'Roboto-Regular', sans-serif;}
	.st17{font-size:9px;}

#valores{
	opacity:0; transition:all ease 0.25s
}
	svg:hover #valores{opacity:1; transition:all ease 0.25s}
	
</style>
<g id="Capa_1">
	<g>
		<path class="st0" d="M146.4,140c0,0,4-0.1,6.9,1.3S169,145,169,145s16.3,3.9,20.6,4.6c4.3,0.7,29.6,1,31.5,1s3-1,5.5,0
			s8.2,7.7,10.1,9.4c1.9,1.6,5.8,3.7,5.9,4.6c0.1,0.9-106.2,0.4-106.2,0.4L146.4,140z"/>
		<ellipse class="st1" cx="170.1" cy="136.2" rx="5.9" ry="3.3"/>
		<path class="st2" d="M223.5,126.3c0,0,0.7,8,1.7,11.1c1,3.1,3.2,4.5,6,4.7c2.8,0.3,2.8-2.9,3.8-5.9c1-2.9-0.1-3.5-2.7-12.2
			s-5.2-11.5-6.6-13.8c-1.5-2.3-2.4-2.2-2.4-2.2l0.3-1.1h-1v-0.9c0,0-1.7,0.8-2.5,0.9s-1.7-2.7-4.3-4.5c-2.7-1.8-5.4-2-6.7-1.2
			c-1.3,0.8-6.2,2.8-6.2,2.8s-5,6.5-6.5,10.3c0,0-6.2,5.5-1.1,18s13,17.4,14.1,18.3s3.6,1.8,3.6,1.8s2.1,1.4,3.4,1.1
			c1.3-0.2,1.8-0.2,1.9-0.8c0.2-0.6,0-0.8,0-0.8s0.6-0.3,0.6-0.8l3.1,0.2c0,0,1.7-0.1,3.7-1.8c2-1.7,3.3-2.6,3.4-4.8
			c0.1-2.2,0-3.4,0-3.4"/>
		<path class="st3" d="M165.7,135c-1.1,4.9,4.9,4.5,4.9,4.5s3.3-0.5,8.1-2.4s5.5-2.7,9-5.9c2.3-2.1,5.2-6.1,8-6.1c0.5,0,1.3,0,2.1,1
			s0.8,3.6,0.8,5.4s-1.5,7.3-2.1,9.4l-2.4,6.2c0.5,0.1,2.4-0.1,5.4,2.2c3.1,2.3,3.1,2.3,3.1,2.3s-0.3,0.2,0.3,1.5
			c0.5,1.3,1,2.4,0.8,2.9c-0.3,0.5-1.3,0-1.5-0.4c-0.2-0.4-0.1,1.2-0.6,0.6s-0.7-1.1-0.9-0.9c-0.4,0.3-0.6-1.1-0.6-1.1
			s-0.4,0-0.8-0.4c-0.4-0.3-0.1-1.5-0.4-1.6c-0.3-0.1-0.2-1.2-0.5-1.2c-0.4,0,0,0-1.5,0.4s-4.8-0.5-6.1-0.7c-1.3-0.2-4.9-1-4.9-1
			l3.8-10.8c0,0,1-4.1,0.7-4.2s-4.1,13.8-5.3,14.8s-17.5-2.9-17.5-2.9l-0.6-6.1c0,0-3.4,0.1-5.1-2.8s-1.6-9.8-1.7-12.1
			c-0.2-2.3,0.3-2.8,1.7-4.4c1.4-1.6,0.5-1.2,0.9-4.2s1.9-7.7,3.6-11.1c1.7-3.4,7.2-5.7,11.8-8c4.6-2.2,13.2-3.4,16-4.1
			c2.8-0.7,3.8,0.4,4.8,1c1,0.6,3.3,2.8,4.8,3.3c1.5,0.6,1.9,1.4,2.2,2.3c0.3,0.9-0.2,1.3-1.3,3c-1.2,1.7-0.8,1.5-0.5,1.9
			c0.9,0.9,0.7,4,0.1,5.1c-1.4,2.7-4.9,2.4-6,3.7s-3.2,3.1-5.5,3.7l7.6,20.8c0,0,3.5,5.5,6.9,8.6c3.4,3.1,3.7,2.7,4.8,4.6
			c1,1.9,1.1,1.9,1.8,3.7c0.7,1.8,0.3,2.2-0.2,2.6c-0.6,0.5-0.4,0.5-1,0.9c-0.1,0.1-0.7,0.2-0.8,0.3c-0.8,0.6-1.1,0.2-2,0.3
			c-1,0.1-1.1,0.1-2.4-1.9c-1.3-2-1.7-3-1.6-3.3c0.1-0.3,0.1-0.3-0.3-0.6c-0.4-0.3-2.7-1.4-2.7-1.4"/>
		<path class="st3" d="M194.4,124.5c0.4-0.2,4.1-1.5,4.2-1.4c0.8,0.3,1.5,1.1,1.3,2.8c-0.1,1.7-1.3,3.6-1.3,4.6s0.4,0.7,0.8,0.3
			s1.5-2.9,1.5-2.9s0.1,3.9-0.4,5.5c-0.6,1.7-1.5,2.9-2.2,3.2s-0.7,0.9-0.7,0.9s-0.1,0.3,0.2,0.3c0.3,0,0.6,0,0.6,0s-0.9,0.5-1,0.9
			s-0.2,0.8,0.1,0.8c0.3,0,0.4-0.2,0.4-0.2s-0.7,0.3-0.7,0.7s0.3,0.3,0.3,0.3s4.3-2.8,5-3.5c0.7-0.7,1.5-2.1,1.9-5
			c0.3-2.9-0.1-7.4-0.7-9.3s-1.4-5.2-5.4-4.2c-4,1.1-4.9,2.2-9.1,3c-4.2,0.8-6.4,1.6-9,3.7c-2.7,2.1-2.5,3.6-5,4.6s-4.5,0.3-5.6,1.1
			"/>
		<path class="st3" d="M190.2,98.9c0,0-3.4,0.5-0.7,3.1c0.8,0.8,1.2,0.7,1.6,0.4c0.4-0.3,0.4-0.7,0.4-0.7"/>
		<path class="st4" d="M201.7,101.9c-0.3-0.2-1.2-1.1-2.7-0.5c-2,0.9-0.2,3.4-0.2,3.4s-0.6,0.3-1.3,1.1s-1.5,3.3-0.5,4.3
			s2.8,1.6,4.3,1c1.5-0.5,2.3-1.3,2.4-2.2c0.1-0.9,0.1-2.2-0.6-3.3c-0.7-1,0-1.2,0-1.2s0.9-0.5,1-1.5c0.1-0.9-0.2-1.6-1-1.6
			C202.2,101.5,201.7,101.9,201.7,101.9z"/>
		<line class="st5" x1="201.9" y1="106.7" x2="202.8" y2="107.7"/>
		<path class="st6" d="M199.1,108.7c0,0,1.8,0.9,3,0.7s1.2-0.3,1.2-0.3"/>
		<path class="st7" d="M200.5,102.9c0,0-0.3-0.8-0.8-0.8s-1,0.4-0.9,0.7c0.2,0.3,0.4,0.5,0.8,0.5
			C200.1,103.2,200.5,102.9,200.5,102.9z"/>
		<path class="st7" d="M203.2,102.6c0,0,0.1-0.3-0.2-0.3c-0.3,0-0.7,0.2-0.8,0.4c-0.1,0.3-0.1,0.3-0.1,0.3s0.4,0.3,0.7,0.2
			S203.2,102.6,203.2,102.6z"/>
		<path class="st2" d="M203.1,142.4c0,0,3.1,1.1,5.6,1.9s1.9,0.9,3.5,1.9c1.6,1,1.9,2.2,4.3,3.4c0.8,0.4,1.3,0.7,1.6,0.9l0.6,0.9"/>
		<path class="st4" d="M215.3,109.6c0.3,0.2,1.1-0.5,1.7-0.6c1.4-0.2,2.3,0.5,2.3,1c0.2,2.1-2.2,1.9-2.1,2.4s1.8,1.9,1.6,3.6
			c-0.2,1.8-1,3-2.2,3.2c-1.2,0.2-5.7,0.6-6.2-2.4c-0.5-3,1.9-4.2,1.9-4.2s-0.8-0.2-1.1-0.9c-0.3-0.8-0.6-2.5,1.1-2.8
			C214.3,108.7,214.8,109.3,215.3,109.6z"/>
		<path class="st6" d="M211.9,116.3c0,0,1.2,0.9,3.3,0.8c2.1-0.1,2.5-0.2,2.5-0.2"/>
		<line class="st6" x1="215.1" y1="114.2" x2="215.6" y2="114.9"/>
		<line class="st6" x1="216.9" y1="114.2" x2="216.5" y2="114.9"/>
		<path class="st7" d="M213.8,110.7c0,0-0.4-0.7-1.1-0.6c-0.7,0.1-0.9,0.2-0.9,0.2s0.4,0.7,1,0.7C213.4,111,213.8,110.7,213.8,110.7
			z"/>
		<path class="st7" d="M216.2,110.6c0,0,0.4-0.7,1.1-0.5c0.7,0.1,1,0.3,1,0.3c-0.1,0.1-0.5,0.7-0.9,0.7
			C217,111,216.2,110.6,216.2,110.6z"/>
		<path class="st6" d="M213.5,155.9"/>
		<path class="st6" d="M209.2,152.4"/>
		<path class="st2" d="M204.1,126.1c0,0,0.2-1.4,2.5-1c2.3,0.4,2.3,0.2,2.6,1.3c0.3,1.1,1.3,8.4,1.3,12.9c0,4.5,0,5.7,0,5.7"/>
		<path class="st2" d="M222.5,150.1c0,0-2.2-3.1-5.4-3.5c-3.2-0.5-4.4,0.1-4.4,0.1s-0.3-17.6-0.3-19.2s2.4-3,5.7-2.7
			s5.8,6.6,5.8,6.6"/>
		<path class="st2" d="M231.9,122.4c0,0-5-5.4-6.1-5.3s-2,0.2-3.5,1.1c-1.5,0.9-3.2,2.7-3.6,3.1c-0.4,0.5-0.5,1,0,1.1
			s1.8-1.5,3.7-2.6c1.8-1,3-1.2,3-1.2"/>
		<path class="st2" d="M226.5,125.2c0,0,0.2,1.4,1.2,3.4c1.1,2,1.3,2.5,1.3,2.5s-0.7-6.1-0.7-6.4c0-0.3-1.1-0.9-1.5-1.1
			s-2.5,1.6-3.6,1.4c-1.1-0.1-1.1-0.3-1.1-0.3s-0.4,0.3-0.9,0c-0.4-0.3-0.6-0.9-0.6-0.9s-1.1,0-1.3-0.7c-0.2-0.8-0.2-0.8-0.2-0.8"/>
		<line class="st2" x1="225.3" y1="120.5" x2="220.6" y2="123.8"/>
		<line class="st2" x1="225.4" y1="122" x2="222.1" y2="124.7"/>
		<circle class="st8" cx="199.6" cy="102.7" r="0.5"/>
		<circle class="st8" cx="217.4" cy="110.6" r="0.5"/>
		<circle class="st9" cx="199.5" cy="102.7" r="0"/>
		<circle class="st8" cx="202.9" cy="102.7" r="0.5"/>
		<circle class="st9" cx="202.8" cy="102.8" r="0.1"/>
		<circle class="st9" cx="217.4" cy="110.6" r="0.1"/>
		<circle class="st8" cx="212.9" cy="110.5" r="0.5"/>
		<circle class="st9" cx="212.8" cy="110.6" r="0"/>
		<path class="st3" d="M204.8,153.2c0.1-0.3,0.8-1.2,1.5-0.6c0.8,0.7,3,3,3,3l2.2,1.9"/>
		<path class="st3" d="M205.6,154.4c0,0,0-0.3,0.3-0.2c0.3,0.1,4.4,4.4,4.4,4.4"/>
		<path class="st3" d="M206.5,152.4c0,0-0.2-0.9-0.1-1.1s0.5-0.4,0.7-0.3c0.3,0.1,5.8,4.5,5.8,4.5"/>
		<path class="st3" d="M208.9,152.1c0,0,0.5-0.6,1.3-0.2s0.8,0.9,1.3,0.9c0.5,0,1,0.2,1,0.6"/>
		<path class="st1" d="M197.3,126.9c0,0-0.6-1.7-1.8-1.6c-0.5,0.1-1.8,0.9-1.8,0.9l3.3,9.3l0.8-0.3l0.5-2l0.1-0.9L197.3,126.9z"/>
	</g>
	<g>
		<g>
			<line class="st10" x1="38.2" y1="185.7" x2="356.4" y2="185.7"/>
			<g>
				<polygon class="st11" points="39.4,187.3 38.7,185.7 39.4,184 35.5,185.7 				"/>
			</g>
			<g>
				<polygon class="st11" points="355.1,187.3 355.8,185.7 355.1,184 359.1,185.7 				"/>
			</g>
		</g>
	</g>
	<rect x="126" y="180.4" class="st4" width="133.2" height="24.6"/>
	<text transform="matrix(1 0 0 1 130.9595 186.5206)" class="st12 st13">EXPECTATIVA DE VIDA</text>
	<linearGradient id="SVGID_1_" gradientUnits="userSpaceOnUse" x1="35.4542" y1="94.3999" x2="359.055" y2="94.3999">
		<stop  offset="0" style="stop-color:#006633"/>
		<stop  offset="0.9995" style="stop-color:#95C11F"/>
	</linearGradient>
	<path class="st14" d="M359.1,173.8H325c-1.6-69.1-58.2-124.6-127.7-124.6S71.2,104.6,69.5,173.8H35.5C37.1,85.8,108.9,15,197.3,15
		C285.6,15,357.4,85.8,359.1,173.8z"/>
	<path class="st10" d="M198.8,182"/>
	<path class="st10" d="M242.7,96.3"/>
	<line class="st10" x1="274.2" y1="34.8" x2="247.1" y2="87.7"/>
	<line class="st15" x1="421.7" y1="177.1" x2="353.6" y2="177.1"/>
	<line class="st15" x1="319.5" y1="177.1" x2="64.1" y2="177.1"/>
	<line class="st15" x1="30" y1="177.1" x2="17" y2="177.1"/>
	<g>
		<path id="SVGID_x5F_2_x5F_" class="st15" d="M58,168.5c3.2-71.3,62.8-128.1,136-128.1"/>
		<text>		<textPath  xlink:href="#SVGID_x5F_2_x5F_" startOffset="9.597%">
<tspan  class="st4 st12 st17">MADUREZ SEXUAL</tspan>		</textPath>
</text>
	</g>
	<path id="SVGID_x5F_3_x5F_" class="st15" d="M103.9,76.4C154.4,26,236.8,24.5,290.7,74"/>
	<text>	<textPath  xlink:href="#SVGID_x5F_3_x5F_" startOffset="31.661%">
<tspan  class="st4 st12 st17">APAREAMIENTO</tspan>	</textPath>
</text>
	<path id="SVGID_x5F_4_x5F_" class="st15" d="M227,49.4c62.3,4.6,109.3,59.5,107.2,123.8"/>
	<text>	<textPath  xlink:href="#SVGID_x5F_4_x5F_" startOffset="46.866%">
<tspan  class="st4 st12 st17">GESTACIÓN</tspan>	</textPath>
</text>
	<line class="st10" x1="144.1" y1="88.4" x2="114.6" y2="37.7"/>
	<path class="st10" d="M143.7,86.4"/>
	<path class="st10" d="M198.8,182"/>
</g>
<g id="valores">
	<path id="SVGID_x5F_5_x5F_" class="st15" d="M81.3,188.1c0.5-71.3,58-130.4,131.1-133.1"/>
	<text>	<textPath  xlink:href="#SVGID_x5F_5_x5F_" startOffset="9.597%">
<tspan  class="st8 st16 st17" style="letter-spacing:-5.9;"> a los 6 - 7 años de edad</tspan>	</textPath>
</text>
	<path id="SVGID_x5F_6_x5F_" class="st15" d="M106,97.8c52.4-48.4,134.8-46.9,186.8,4.6"/>
	<text>	<textPath  xlink:href="#SVGID_x5F_6_x5F_" startOffset="31.661%">
<tspan  class="st8 st16 st17">cada 2 a 3 años</tspan>	</textPath>
</text>
	<path id="SVGID_x5F_7_x5F_" class="st15" d="M207,64.4c62.3,3.6,110.2,57.8,109.2,122.1"/>
	<text>	<textPath  xlink:href="#SVGID_x5F_7_x5F_" startOffset="46.866%">
<tspan  class="st8 st16 st17">7 a 8 meses</tspan>	</textPath>
</text>
	<g>
		<text transform="matrix(1.0158 0 0 1 146.8787 198.9698)" class="st8 st16 st17">40 años en cautiverio</text>
	</g>
</g>
</svg>
